{
  "accessors": [
    {
      "bufferView": 2,
      "componentType": 5126,
      "count": 484,
      "max": [
        24.928138732910156,
        36.953872680664062,
        15.624509811401367
      ],
      "min": [
        -24.928138732910156,
        -7.4649448394775391,
        -0.9765809178352356
      ],
      "type": "VEC3"
    },
    {
      "bufferView": 2,
      "byteOffset": 5808,
      "componentType": 5126,
      "count": 484,
      "max": [
        1,
        1,
        1
      ],
      "min": [
        -1,
        -1,
        -1
      ],
      "type": "VEC3"
    },
    {
      "bufferView": 3,
      "componentType": 5126,
      "count": 484,
      "max": [
        1,
        0.26245525479316711,
        0.99841046333312988,
        1
      ],
      "min": [
        0,
        -0.26245781779289246,
        -0.99841016530990601,
        -1
      ],
      "type": "VEC4"
    },
    {
      "bufferView": 1,
      "componentType": 5126,
      "count": 484,
      "max": [
        1.3231858015060425,
        1.0428351163864136
      ],
      "min": [
        -0.32318603992462158,
        -0.42397910356521606
      ],
      "type": "VEC2"
    },
    {
      "bufferView": 0,
      "componentType": 5125,
      "count": 2208,
      "max": [
        483
      ],
      "min": [
        0
      ],
      "type": "SCALAR"
    },
    {
      "bufferView": 2,
      "byteOffset": 11616,
      "componentType": 5126,
      "count": 3332,
      "max": [
        16.988922119140625,
        41.625007629394531,
        10.271299362182617
      ],
      "min": [
        -16.988922119140625,
        -22.3858642578125,
        -35.651077270507812
      ],
      "type": "VEC3"
    },
    {
      "bufferView": 2,
      "byteOffset": 51600,
      "componentType": 5126,
      "count": 3332,
      "max": [
        1,
        1,
        1
      ],
      "min": [
        -1,
        -1,
        -1
      ],
      "type": "VEC3"
    },
    {
      "bufferView": 3,
      "byteOffset": 7744,
      "componentType": 5126,
      "count": 3332,
      "max": [
        1,
        0.98169487714767456,
        0.99999988079071045,
        1
      ],
      "min": [
        -0.81691384315490723,
        -0.98169481754302979,
        -1,
        -1
      ],
      "type": "VEC4"
    },
    {
      "bufferView": 1,
      "byteOffset": 3872,
      "componentType": 5126,
      "count": 3332,
      "max": [
        1.0610141754150391,
        1.1970869302749634
      ],
      "min": [
        -0.061014354228973389,
        -0.91670310497283936
      ],
      "type": "VEC2"
    },
    {
      "bufferView": 0,
      "byteOffset": 8832,
      "componentType": 5125,
      "count": 16854,
      "max": [
        3331
      ],
      "min": [
        0
      ],
      "type": "SCALAR"
    },
    {
      "bufferView": 2,
      "byteOffset": 91584,
      "componentType": 5126,
      "count": 91,
      "max": [
        13.420102119445801,
        31.333505630493164,
        14.420331001281738
      ],
      "min": [
        -13.420102119445801,
        14.747952461242676,
        3.9306502342224121
      ],
      "type": "VEC3"
    },
    {
      "bufferView": 2,
      "byteOffset": 92676,
      "componentType": 5126,
      "count": 91,
      "max": [
        0.92387974262237549,
        0.69731122255325317,
        0.99841028451919556
      ],
      "min": [
        -0.92387974262237549,
        -0.34869682788848877,
        0.27429518103599548
      ],
      "type": "VEC3"
    },
    {
      "bufferView": 3,
      "byteOffset": 61056,
      "componentType": 5126,
      "count": 91,
      "max": [
        1,
        0.054632995277643204,
        0.9435809850692749,
        1
      ],
      "min": [
        0.32660385966300964,
        -0.054633300751447678,
        -0.94358104467391968,
        1
      ],
      "type": "VEC4"
    },
    {
      "bufferView": 1,
      "byteOffset": 30528,
      "componentType": 5126,
      "count": 91,
      "max": [
        0.94316345453262329,
        0.85723733901977539
      ],
      "min": [
        0.056836605072021484,
        0.30954307317733765
      ],
      "type": "VEC2"
    },
    {
      "bufferView": 0,
      "byteOffset": 76248,
      "componentType": 5125,
      "count": 432,
      "max": [
        90
      ],
      "min": [
        0
      ],
      "type": "SCALAR"
    },
    {
      "bufferView": 2,
      "byteOffset": 93768,
      "componentType": 5126,
      "count": 612,
      "max": [
        19.299034118652344,
        -21.810085296630859,
        16.463464736938477
      ],
      "min": [
        -19.299034118652344,
        -31.203622817993164,
        -9.4659824371337891
      ],
      "type": "VEC3"
    },
    {
      "bufferView": 2,
      "byteOffset": 101112,
      "componentType": 5126,
      "count": 612,
      "max": [
        0.99766296148300171,
        1,
        0.9555773138999939
      ],
      "min": [
        -0.99766296148300171,
        -1,
        -0.99158918857574463
      ],
      "type": "VEC3"
    },
    {
      "bufferView": 3,
      "byteOffset": 62512,
      "componentType": 5126,
      "count": 612,
      "max": [
        0.99997586011886597,
        0.93974769115447998,
        0.99963033199310303,
        1
      ],
      "min": [
        -0.055604904890060425,
        -0.93980807065963745,
        -0.99963027238845825,
        -1
      ],
      "type": "VEC4"
    },
    {
      "bufferView": 1,
      "byteOffset": 31256,
      "componentType": 5126,
      "count": 612,
      "max": [
        1.1372992992401123,
        -0.8976893424987793
      ],
      "min": [
        -0.13730007410049438,
        -1.2078863382339478
      ],
      "type": "VEC2"
    },
    {
      "bufferView": 0,
      "byteOffset": 77976,
      "componentType": 5125,
      "count": 3300,
      "max": [
        611
      ],
      "min": [
        0
      ],
      "type": "SCALAR"
    },
    {
      "bufferView": 2,
      "byteOffset": 108456,
      "componentType": 5126,
      "count": 180,
      "max": [
        19.03822135925293,
        -31.203620910644531,
        16.01103401184082
      ],
      "min": [
        -19.03822135925293,
        -31.203622817993164,
        -9.1816616058349609
      ],
      "type": "VEC3"
    },
    {
      "bufferView": 2,
      "byteOffset": 110616,
      "componentType": 5126,
      "count": 180,
      "max": [
        0.99940586090087891,
        1,
        0.9329407811164856
      ],
      "min": [
        -0.99940586090087891,
        -1,
        -0.57899165153503418
      ],
      "type": "VEC3"
    },
    {
      "bufferView": 3,
      "byteOffset": 72304,
      "componentType": 5126,
      "count": 180,
      "max": [
        1,
        0,
        0,
        1
      ],
      "min": [
        0,
        0,
        0,
        1
      ],
      "type": "VEC4"
    },
    {
      "bufferView": 1,
      "byteOffset": 36152,
      "componentType": 5126,
      "count": 180,
      "max": [
        1.1286865472793579,
        -1.2078860998153687
      ],
      "min": [
        -0.12868738174438477,
        -1.2078863382339478
      ],
      "type": "VEC2"
    },
    {
      "bufferView": 0,
      "byteOffset": 91176,
      "componentType": 5125,
      "count": 492,
      "max": [
        179
      ],
      "min": [
        0
      ],
      "type": "SCALAR"
    },
    {
      "bufferView": 2,
      "byteOffset": 112776,
      "componentType": 5126,
      "count": 5196,
      "max": [
        44.6689453125,
        10.01584529876709,
        9.7275733947753906
      ],
      "min": [
        -44.6689453125,
        -31.228237152099609,
        -8.1275320053100586
      ],
      "type": "VEC3"
    },
    {
      "bufferView": 2,
      "byteOffset": 175128,
      "componentType": 5126,
      "count": 5196,
      "max": [
        1,
        1,
        1
      ],
      "min": [
        -1,
        -1,
        -1
      ],
      "type": "VEC3"
    },
    {
      "bufferView": 3,
      "byteOffset": 75184,
      "componentType": 5126,
      "count": 5196,
      "max": [
        1,
        0.9993547797203064,
        0.99999284744262695,
        1
      ],
      "min": [
        -0.26436305046081543,
        -0.99932396411895752,
        -0.99999290704727173,
        -1
      ],
      "type": "VEC4"
    },
    {
      "bufferView": 1,
      "byteOffset": 37592,
      "componentType": 5126,
      "count": 5196,
      "max": [
        1.9750738143920898,
        0.15327796339988708
      ],
      "min": [
        -0.97507405281066895,
        -1.208699107170105
      ],
      "type": "VEC2"
    },
    {
      "bufferView": 0,
      "byteOffset": 93144,
      "componentType": 5125,
      "count": 30072,
      "max": [
        5195
      ],
      "min": [
        0
      ],
      "type": "SCALAR"
    },
    {
      "bufferView": 2,
      "byteOffset": 237480,
      "componentType": 5126,
      "count": 114,
      "max": [
        1.0295315980911255,
        16.297159194946289,
        19.28624153137207
      ],
      "min": [
        -1.0295315980911255,
        13.893899917602539,
        14.312031745910645
      ],
      "type": "VEC3"
    },
    {
      "bufferView": 2,
      "byteOffset": 238848,
      "componentType": 5126,
      "count": 114,
      "max": [
        0.99997514486312866,
        0.99877619743347168,
        0.96592622995376587
      ],
      "min": [
        -0.99997520446777344,
        -0.99903923273086548,
        -0.96592628955841064
      ],
      "type": "VEC3"
    },
    {
      "bufferView": 3,
      "byteOffset": 158320,
      "componentType": 5126,
      "count": 114,
      "max": [
        1,
        0.3175603449344635,
        0.9999767541885376,
        1
      ],
      "min": [
        -0.087815001606941223,
        -0.31755799055099487,
        -0.99997669458389282,
        -1
      ],
      "type": "VEC4"
    },
    {
      "bufferView": 1,
      "byteOffset": 79160,
      "componentType": 5126,
      "count": 114,
      "max": [
        0.53399753570556641,
        0.36070162057876587
      ],
      "min": [
        0.46600240468978882,
        0.2813403308391571
      ],
      "type": "VEC2"
    },
    {
      "bufferView": 0,
      "byteOffset": 213432,
      "componentType": 5125,
      "count": 672,
      "max": [
        113
      ],
      "min": [
        0
      ],
      "type": "SCALAR"
    },
    {
      "bufferView": 2,
      "byteOffset": 240216,
      "componentType": 5126,
      "count": 96,
      "max": [
        20.109617233276367,
        -27.40509033203125,
        5.1177558898925781
      ],
      "min": [
        -20.109617233276367,
        -31.34486198425293,
        -1.6043980121612549
      ],
      "type": "VEC3"
    },
    {
      "bufferView": 2,
      "byteOffset": 241368,
      "componentType": 5126,
      "count": 96,
      "max": [
        0.96973109245300293,
        0.98480778932571411,
        0.98492318391799927
      ],
      "min": [
        -0.96973109245300293,
        -0.98480778932571411,
        -0.98492318391799927
      ],
      "type": "VEC3"
    },
    {
      "bufferView": 3,
      "byteOffset": 160144,
      "componentType": 5126,
      "count": 96,
      "max": [
        0.98503601551055908,
        1.8375279751126072e-06,
        0.99619477987289429,
        1
      ],
      "min": [
        0.087154261767864227,
        -1.8045695924229221e-06,
        -0.99619483947753906,
        -1
      ],
      "type": "VEC4"
    },
    {
      "bufferView": 1,
      "byteOffset": 80072,
      "componentType": 5126,
      "count": 96,
      "max": [
        1.1640665531158447,
        -1.0824495553970337
      ],
      "min": [
        -0.16406738758087158,
        -1.2125504016876221
      ],
      "type": "VEC2"
    },
    {
      "bufferView": 0,
      "byteOffset": 216120,
      "componentType": 5125,
      "count": 192,
      "max": [
        95
      ],
      "min": [
        0
      ],
      "type": "SCALAR"
    }
  ],
  "asset": {
    "extras": {
      "author": "sheppo58 (https://sketchfab.com/shrek)",
      "license": "CC-BY-4.0 (http://creativecommons.org/licenses/by/4.0/)",
      "source": "https://sketchfab.com/3d-models/sonic-the-hedgehog-7ce22106ff314e5fa7680ac19b0ba198",
      "title": "Sonic The Hedgehog"
    },
    "generator": "Sketchfab-5.97.1",
    "version": "2.0"
  },
  "bufferViews": [
    {
      "buffer": 0,
      "byteLength": 216888,
      "byteOffset": 0,
      "name": "floatBufferViews",
      "target": 34963
    },
    {
      "buffer": 0,
      "byteLength": 80840,
      "byteOffset": 216888,
      "byteStride": 8,
      "name": "floatBufferViews",
      "target": 34962
    },
    {
      "buffer": 0,
      "byteLength": 242520,
      "byteOffset": 297728,
      "byteStride": 12,
      "name": "floatBufferViews",
      "target": 34962
    },
    {
      "buffer": 0,
      "byteLength": 161680,
      "byteOffset": 540248,
      "byteStride": 16,
      "name": "floatBufferViews",
      "target": 34962
    }
  ],
  "buffers": [
    {
      "byteLength": 701928,
      "uri": "scene.bin"
    }
  ],
  "images": [
    {
      "uri": "textures/Skin_baseColor.png"
    },
    {
      "uri": "textures/Blue_baseColor.png"
    },
    {
      "uri": "textures/Eyes_baseColor.png"
    },
    {
      "uri": "textures/material_baseColor.png"
    },
    {
      "uri": "textures/Dark_Red_baseColor.png"
    },
    {
      "uri": "textures/White_baseColor.png"
    },
    {
      "uri": "textures/Black_baseColor.png"
    },
    {
      "uri": "textures/Yellow_baseColor.png"
    }
  ],
  "materials": [
    {
      "doubleSided": true,
      "emissiveFactor": [
        0,
        0,
        0
      ],
      "name": "Skin",
      "pbrMetallicRoughness": {
        "baseColorFactor": [
          1,
          1,
          1,
          1
        ],
        "baseColorTexture": {
          "index": 0,
          "texCoord": 0
        },
        "metallicFactor": 0,
        "roughnessFactor": 0.89297135964975516
      }
    },
    {
      "doubleSided": true,
      "emissiveFactor": [
        0,
        0,
        0
      ],
      "name": "Blue",
      "pbrMetallicRoughness": {
        "baseColorFactor": [
          1,
          1,
          1,
          1
        ],
        "baseColorTexture": {
          "index": 1,
          "texCoord": 0
        },
        "metallicFactor": 0,
        "roughnessFactor": 0.89297135964975516
      }
    },
    {
      "doubleSided": true,
      "emissiveFactor": [
        0,
        0,
        0
      ],
      "name": "Eyes",
      "pbrMetallicRoughness": {
        "baseColorFactor": [
          1,
          1,
          1,
          1
        ],
        "baseColorTexture": {
          "index": 2,
          "texCoord": 0
        },
        "metallicFactor": 0,
        "roughnessFactor": 0.89297135964975516
      }
    },
    {
      "doubleSided": true,
      "emissiveFactor": [
        0,
        0,
        0
      ],
      "name": "material",
      "pbrMetallicRoughness": {
        "baseColorFactor": [
          1,
          1,
          1,
          1
        ],
        "baseColorTexture": {
          "index": 3,
          "texCoord": 0
        },
        "metallicFactor": 0,
        "roughnessFactor": 0.89297135964975516
      }
    },
    {
      "doubleSided": true,
      "emissiveFactor": [
        0,
        0,
        0
      ],
      "name": "Dark_Red",
      "pbrMetallicRoughness": {
        "baseColorFactor": [
          1,
          1,
          1,
          1
        ],
        "baseColorTexture": {
          "index": 4,
          "texCoord": 0
        },
        "metallicFactor": 0,
        "roughnessFactor": 0.89297135964975516
      }
    },
    {
      "doubleSided": true,
      "emissiveFactor": [
        0,
        0,
        0
      ],
      "name": "White",
      "pbrMetallicRoughness": {
        "baseColorFactor": [
          1,
          1,
          1,
          1
        ],
        "baseColorTexture": {
          "index": 5,
          "texCoord": 0
        },
        "metallicFactor": 0,
        "roughnessFactor": 0.89297135964975516
      }
    },
    {
      "doubleSided": true,
      "emissiveFactor": [
        0,
        0,
        0
      ],
      "name": "Black",
      "pbrMetallicRoughness": {
        "baseColorFactor": [
          1,
          1,
          1,
          1
        ],
        "baseColorTexture": {
          "index": 6,
          "texCoord": 0
        },
        "metallicFactor": 0,
        "roughnessFactor": 0.89297135964975516
      }
    },
    {
      "doubleSided": true,
      "emissiveFactor": [
        0,
        0,
        0
      ],
      "name": "Yellow",
      "pbrMetallicRoughness": {
        "baseColorFactor": [
          1,
          1,
          1,
          1
        ],
        "baseColorTexture": {
          "index": 7,
          "texCoord": 0
        },
        "metallicFactor": 0,
        "roughnessFactor": 0.89297135964975516
      }
    }
  ],
  "meshes": [
    {
      "name": "Sphere001_Skin_0",
      "primitives": [
        {
          "attributes": {
            "NORMAL": 1,
            "POSITION": 0,
            "TANGENT": 2,
            "TEXCOORD_0": 3
          },
          "indices": 4,
          "material": 0,
          "mode": 4
        }
      ]
    },
    {
      "name": "Sphere001_Blue_0",
      "primitives": [
        {
          "attributes": {
            "NORMAL": 6,
            "POSITION": 5,
            "TANGENT": 7,
            "TEXCOORD_0": 8
          },
          "indices": 9,
          "material": 1,
          "mode": 4
        }
      ]
    },
    {
      "name": "Sphere001_Eyes_0",
      "primitives": [
        {
          "attributes": {
            "NORMAL": 11,
            "POSITION": 10,
            "TANGENT": 12,
            "TEXCOORD_0": 13
          },
          "indices": 14,
          "material": 2,
          "mode": 4
        }
      ]
    },
    {
      "name": "Sphere001_Red_0",
      "primitives": [
        {
          "attributes": {
            "NORMAL": 16,
            "POSITION": 15,
            "TANGENT": 17,
            "TEXCOORD_0": 18
          },
          "indices": 19,
          "material": 3,
          "mode": 4
        }
      ]
    },
    {
      "name": "Sphere001_Dark Red_0",
      "primitives": [
        {
          "attributes": {
            "NORMAL": 21,
            "POSITION": 20,
            "TANGENT": 22,
            "TEXCOORD_0": 23
          },
          "indices": 24,
          "material": 4,
          "mode": 4
        }
      ]
    },
    {
      "name": "Sphere001_White_0",
      "primitives": [
        {
          "attributes": {
            "NORMAL": 26,
            "POSITION": 25,
            "TANGENT": 27,
            "TEXCOORD_0": 28
          },
          "indices": 29,
          "material": 5,
          "mode": 4
        }
      ]
    },
    {
      "name": "Sphere001_Black_0",
      "primitives": [
        {
          "attributes": {
            "NORMAL": 31,
            "POSITION": 30,
            "TANGENT": 32,
            "TEXCOORD_0": 33
          },
          "indices": 34,
          "material": 6,
          "mode": 4
        }
      ]
    },
    {
      "name": "Sphere001_Yellow_0",
      "primitives": [
        {
          "attributes": {
            "NORMAL": 36,
            "POSITION": 35,
            "TANGENT": 37,
            "TEXCOORD_0": 38
          },
          "indices": 39,
          "material": 7,
          "mode": 4
        }
      ]
    }
  ],
  "nodes": [
    {
      "children": [
        1
      ],
      "name": "RootNode (gltf orientation matrix)",
      "rotation": [
        -0.70710678118654746,
        -0,
        -0,
        0.70710678118654757
      ]
    },
    {
      "children": [
        2
      ],
      "matrix": [
        1,
        0,
        0,
        0,
        0,
        1,
        0,
        0,
        0,
        0,
        1,
        0,
        0,
        -1.3415331068244996e-06,
        -1.5240279083172936e-07,
        1
      ],
      "name": "RootNode (model correction matrix)"
    },
    {
      "children": [
        3
      ],
      "matrix": [
        1,
        0,
        0,
        0,
        0,
        0,
        1,
        0,
        0,
        -1,
        0,
        0,
        0,
        0,
        0,
        1
      ],
      "name": "be7c0c987d5a4cae877ed9da1efd1bec.fbx"
    },
    {
      "children": [
        4
      ],
      "name": "RootNode"
    },
    {
      "children": [
        5
      ],
      "matrix": [
        1,
        0,
        0,
        0,
        0,
        0.999999999999999,
        4.3711388286737922e-08,
        0,
        0,
        -4.3711388286737922e-08,
        0.999999999999999,
        0,
        0,
        0,
        0,
        1
      ],
      "name": "Sphere001"
    },
    {
      "children": [
        6,
        7,
        8,
        9,
        10,
        11,
        12,
        13
      ],
      "matrix": [
        1,
        0,
        -0,
        0,
        0,
        1,
        0,
        0,
        0,
        0,
        1,
        0,
        0,
        31.203542709350586,
        7.1622707764618099e-12,
        1
      ],
      "name": ""
    },
    {
      "mesh": 0,
      "name": "Sphere001_Skin_0"
    },
    {
      "mesh": 1,
      "name": "Sphere001_Blue_0"
    },
    {
      "mesh": 2,
      "name": "Sphere001_Eyes_0"
    },
    {
      "mesh": 3,
      "name": "Sphere001_Red_0"
    },
    {
      "mesh": 4,
      "name": "Sphere001_Dark Red_0"
    },
    {
      "mesh": 5,
      "name": "Sphere001_White_0"
    },
    {
      "mesh": 6,
      "name": "Sphere001_Black_0"
    },
    {
      "mesh": 7,
      "name": "Sphere001_Yellow_0"
    }
  ],
  "samplers": [
    {
      "magFilter": 9729,
      "minFilter": 9987,
      "wrapS": 10497,
      "wrapT": 10497
    }
  ],
  "scene": 0,
  "scenes": [
    {
      "name": "OSG_Scene",
      "nodes": [
        0
      ]
    }
  ],
  "textures": [
    {
      "sampler": 0,
      "source": 0
    },
    {
      "sampler": 0,
      "source": 1
    },
    {
      "sampler": 0,
      "source": 2
    },
    {
      "sampler": 0,
      "source": 3
    },
    {
      "sampler": 0,
      "source": 4
    },
    {
      "sampler": 0,
      "source": 5
    },
    {
      "sampler": 0,
      "source": 6
    },
    {
      "sampler": 0,
      "source": 7
    }
  ]
}

